<mxfile host="app.diagrams.net" modified="2023-03-31T12:50:04.069Z" agent="Mozilla/5.0 (Windows NT 10.0; Win64; x64) AppleWebKit/537.36 (KHTML, like Gecko) Chrome/111.0.0.0 Safari/537.36" etag="naOvuFtFcgneLwAN8203" version="21.1.2" type="github">
  <diagram id="C5RBs43oDa-KdzZeNtuy" name="Page-1">
    <mxGraphModel dx="1588" dy="928" grid="1" gridSize="10" guides="1" tooltips="1" connect="1" arrows="1" fold="1" page="1" pageScale="1" pageWidth="827" pageHeight="1169" math="0" shadow="0">
      <root>
        <mxCell id="WIyWlLk6GJQsqaUBKTNV-0" />
        <mxCell id="WIyWlLk6GJQsqaUBKTNV-1" parent="WIyWlLk6GJQsqaUBKTNV-0" />
        <mxCell id="MD0y3iLFZOxwnhTRuBRV-26" style="edgeStyle=none;curved=1;rounded=0;orthogonalLoop=1;jettySize=auto;html=1;exitX=0.75;exitY=1;exitDx=0;exitDy=0;fontSize=12;startSize=8;endSize=8;entryX=0;entryY=0.75;entryDx=0;entryDy=0;" edge="1" parent="WIyWlLk6GJQsqaUBKTNV-1" source="MD0y3iLFZOxwnhTRuBRV-0" target="MD0y3iLFZOxwnhTRuBRV-36">
          <mxGeometry relative="1" as="geometry">
            <mxPoint x="109.88888888888891" y="400.33333333333326" as="targetPoint" />
          </mxGeometry>
        </mxCell>
        <mxCell id="MD0y3iLFZOxwnhTRuBRV-30" style="edgeStyle=none;curved=1;rounded=0;orthogonalLoop=1;jettySize=auto;html=1;exitX=1;exitY=0;exitDx=0;exitDy=0;entryX=0;entryY=0.5;entryDx=0;entryDy=0;fontSize=12;startSize=8;endSize=8;" edge="1" parent="WIyWlLk6GJQsqaUBKTNV-1" source="MD0y3iLFZOxwnhTRuBRV-0" target="MD0y3iLFZOxwnhTRuBRV-1">
          <mxGeometry relative="1" as="geometry" />
        </mxCell>
        <mxCell id="MD0y3iLFZOxwnhTRuBRV-32" style="edgeStyle=none;curved=1;rounded=0;orthogonalLoop=1;jettySize=auto;html=1;exitX=1;exitY=1;exitDx=0;exitDy=0;entryX=0;entryY=0.5;entryDx=0;entryDy=0;fontSize=12;startSize=8;endSize=8;" edge="1" parent="WIyWlLk6GJQsqaUBKTNV-1" source="MD0y3iLFZOxwnhTRuBRV-0" target="MD0y3iLFZOxwnhTRuBRV-3">
          <mxGeometry relative="1" as="geometry" />
        </mxCell>
        <mxCell id="MD0y3iLFZOxwnhTRuBRV-33" value="" style="edgeStyle=none;curved=1;rounded=0;orthogonalLoop=1;jettySize=auto;html=1;fontSize=12;startSize=8;endSize=8;" edge="1" parent="WIyWlLk6GJQsqaUBKTNV-1" source="MD0y3iLFZOxwnhTRuBRV-0" target="MD0y3iLFZOxwnhTRuBRV-25">
          <mxGeometry relative="1" as="geometry" />
        </mxCell>
        <mxCell id="MD0y3iLFZOxwnhTRuBRV-56" style="edgeStyle=none;curved=1;rounded=0;orthogonalLoop=1;jettySize=auto;html=1;exitX=1;exitY=0.75;exitDx=0;exitDy=0;entryX=0.75;entryY=0;entryDx=0;entryDy=0;fontSize=12;startSize=8;endSize=8;" edge="1" parent="WIyWlLk6GJQsqaUBKTNV-1" source="MD0y3iLFZOxwnhTRuBRV-0" target="MD0y3iLFZOxwnhTRuBRV-37">
          <mxGeometry relative="1" as="geometry" />
        </mxCell>
        <mxCell id="MD0y3iLFZOxwnhTRuBRV-0" value="Monopoli" style="rounded=0;whiteSpace=wrap;html=1;fontSize=16;" vertex="1" parent="WIyWlLk6GJQsqaUBKTNV-1">
          <mxGeometry x="10" y="310" width="120" height="60" as="geometry" />
        </mxCell>
        <mxCell id="MD0y3iLFZOxwnhTRuBRV-77" style="edgeStyle=none;curved=1;rounded=0;orthogonalLoop=1;jettySize=auto;html=1;exitX=1;exitY=1;exitDx=0;exitDy=0;entryX=0;entryY=0;entryDx=0;entryDy=0;fontSize=12;startSize=8;endSize=8;" edge="1" parent="WIyWlLk6GJQsqaUBKTNV-1" source="MD0y3iLFZOxwnhTRuBRV-1" target="MD0y3iLFZOxwnhTRuBRV-44">
          <mxGeometry relative="1" as="geometry" />
        </mxCell>
        <mxCell id="MD0y3iLFZOxwnhTRuBRV-1" value="Pelaajat&lt;br&gt;-pelaaja.raha" style="rounded=0;whiteSpace=wrap;html=1;fontSize=16;" vertex="1" parent="WIyWlLk6GJQsqaUBKTNV-1">
          <mxGeometry x="230" y="240" width="120" height="60" as="geometry" />
        </mxCell>
        <mxCell id="MD0y3iLFZOxwnhTRuBRV-2" value="Pelinappula" style="rounded=0;whiteSpace=wrap;html=1;fontSize=16;" vertex="1" parent="WIyWlLk6GJQsqaUBKTNV-1">
          <mxGeometry x="440" y="240" width="120" height="60" as="geometry" />
        </mxCell>
        <mxCell id="MD0y3iLFZOxwnhTRuBRV-3" value="Pelilauta" style="rounded=0;whiteSpace=wrap;html=1;fontSize=16;" vertex="1" parent="WIyWlLk6GJQsqaUBKTNV-1">
          <mxGeometry x="230" y="430" width="120" height="60" as="geometry" />
        </mxCell>
        <mxCell id="MD0y3iLFZOxwnhTRuBRV-4" value="Ruudut" style="rounded=0;whiteSpace=wrap;html=1;fontSize=16;" vertex="1" parent="WIyWlLk6GJQsqaUBKTNV-1">
          <mxGeometry x="440" y="430" width="120" height="60" as="geometry" />
        </mxCell>
        <mxCell id="MD0y3iLFZOxwnhTRuBRV-11" value="" style="endArrow=none;html=1;rounded=0;fontSize=12;startSize=8;endSize=8;curved=1;exitX=1;exitY=0.5;exitDx=0;exitDy=0;entryX=0;entryY=0.5;entryDx=0;entryDy=0;" edge="1" parent="WIyWlLk6GJQsqaUBKTNV-1" source="MD0y3iLFZOxwnhTRuBRV-3" target="MD0y3iLFZOxwnhTRuBRV-4">
          <mxGeometry width="50" height="50" relative="1" as="geometry">
            <mxPoint x="290" y="420" as="sourcePoint" />
            <mxPoint x="340" y="370" as="targetPoint" />
          </mxGeometry>
        </mxCell>
        <mxCell id="MD0y3iLFZOxwnhTRuBRV-12" value="" style="endArrow=none;html=1;rounded=0;fontSize=12;startSize=8;endSize=8;curved=1;entryX=0;entryY=0.5;entryDx=0;entryDy=0;exitX=1;exitY=0.5;exitDx=0;exitDy=0;" edge="1" parent="WIyWlLk6GJQsqaUBKTNV-1" source="MD0y3iLFZOxwnhTRuBRV-1" target="MD0y3iLFZOxwnhTRuBRV-2">
          <mxGeometry width="50" height="50" relative="1" as="geometry">
            <mxPoint x="290" y="420" as="sourcePoint" />
            <mxPoint x="340" y="370" as="targetPoint" />
          </mxGeometry>
        </mxCell>
        <mxCell id="MD0y3iLFZOxwnhTRuBRV-13" value="" style="endArrow=none;html=1;rounded=0;fontSize=12;startSize=8;endSize=8;curved=1;entryX=0.5;entryY=1;entryDx=0;entryDy=0;exitX=0.5;exitY=0;exitDx=0;exitDy=0;" edge="1" parent="WIyWlLk6GJQsqaUBKTNV-1" source="MD0y3iLFZOxwnhTRuBRV-4" target="MD0y3iLFZOxwnhTRuBRV-2">
          <mxGeometry width="50" height="50" relative="1" as="geometry">
            <mxPoint x="290" y="420" as="sourcePoint" />
            <mxPoint x="340" y="370" as="targetPoint" />
          </mxGeometry>
        </mxCell>
        <mxCell id="MD0y3iLFZOxwnhTRuBRV-15" value="1" style="text;html=1;align=center;verticalAlign=middle;resizable=0;points=[];autosize=1;strokeColor=none;fillColor=none;fontSize=16;" vertex="1" parent="WIyWlLk6GJQsqaUBKTNV-1">
          <mxGeometry x="205" y="420" width="30" height="30" as="geometry" />
        </mxCell>
        <mxCell id="MD0y3iLFZOxwnhTRuBRV-16" value="1" style="text;html=1;align=center;verticalAlign=middle;resizable=0;points=[];autosize=1;strokeColor=none;fillColor=none;fontSize=16;" vertex="1" parent="WIyWlLk6GJQsqaUBKTNV-1">
          <mxGeometry x="150" y="370" width="30" height="30" as="geometry" />
        </mxCell>
        <mxCell id="MD0y3iLFZOxwnhTRuBRV-17" value="*" style="text;html=1;align=center;verticalAlign=middle;resizable=0;points=[];autosize=1;strokeColor=none;fillColor=none;fontSize=16;" vertex="1" parent="WIyWlLk6GJQsqaUBKTNV-1">
          <mxGeometry x="205" y="275" width="30" height="30" as="geometry" />
        </mxCell>
        <mxCell id="MD0y3iLFZOxwnhTRuBRV-18" value="1" style="text;html=1;align=center;verticalAlign=middle;resizable=0;points=[];autosize=1;strokeColor=none;fillColor=none;fontSize=16;" vertex="1" parent="WIyWlLk6GJQsqaUBKTNV-1">
          <mxGeometry x="125" y="305" width="30" height="30" as="geometry" />
        </mxCell>
        <mxCell id="MD0y3iLFZOxwnhTRuBRV-19" value="1" style="text;html=1;align=center;verticalAlign=middle;resizable=0;points=[];autosize=1;strokeColor=none;fillColor=none;fontSize=16;" vertex="1" parent="WIyWlLk6GJQsqaUBKTNV-1">
          <mxGeometry x="350" y="270" width="30" height="30" as="geometry" />
        </mxCell>
        <mxCell id="MD0y3iLFZOxwnhTRuBRV-20" value="1" style="text;html=1;align=center;verticalAlign=middle;resizable=0;points=[];autosize=1;strokeColor=none;fillColor=none;fontSize=16;" vertex="1" parent="WIyWlLk6GJQsqaUBKTNV-1">
          <mxGeometry x="410" y="270" width="30" height="30" as="geometry" />
        </mxCell>
        <mxCell id="MD0y3iLFZOxwnhTRuBRV-21" value="1" style="text;html=1;align=center;verticalAlign=middle;resizable=0;points=[];autosize=1;strokeColor=none;fillColor=none;fontSize=16;" vertex="1" parent="WIyWlLk6GJQsqaUBKTNV-1">
          <mxGeometry x="345" y="435" width="30" height="30" as="geometry" />
        </mxCell>
        <mxCell id="MD0y3iLFZOxwnhTRuBRV-23" value="1" style="text;html=1;align=center;verticalAlign=middle;resizable=0;points=[];autosize=1;strokeColor=none;fillColor=none;fontSize=16;" vertex="1" parent="WIyWlLk6GJQsqaUBKTNV-1">
          <mxGeometry x="495" y="405" width="30" height="30" as="geometry" />
        </mxCell>
        <mxCell id="MD0y3iLFZOxwnhTRuBRV-24" value="1" style="text;html=1;align=center;verticalAlign=middle;resizable=0;points=[];autosize=1;strokeColor=none;fillColor=none;fontSize=16;" vertex="1" parent="WIyWlLk6GJQsqaUBKTNV-1">
          <mxGeometry x="495" y="295" width="30" height="30" as="geometry" />
        </mxCell>
        <mxCell id="MD0y3iLFZOxwnhTRuBRV-25" value="Noppa" style="whiteSpace=wrap;html=1;fontSize=16;" vertex="1" parent="WIyWlLk6GJQsqaUBKTNV-1">
          <mxGeometry x="80" y="510" width="120" height="60" as="geometry" />
        </mxCell>
        <mxCell id="MD0y3iLFZOxwnhTRuBRV-34" value="*" style="text;html=1;align=center;verticalAlign=middle;resizable=0;points=[];autosize=1;strokeColor=none;fillColor=none;fontSize=16;" vertex="1" parent="WIyWlLk6GJQsqaUBKTNV-1">
          <mxGeometry x="405" y="435" width="30" height="30" as="geometry" />
        </mxCell>
        <mxCell id="MD0y3iLFZOxwnhTRuBRV-35" value="*" style="text;html=1;align=center;verticalAlign=middle;resizable=0;points=[];autosize=1;strokeColor=none;fillColor=none;fontSize=16;" vertex="1" parent="WIyWlLk6GJQsqaUBKTNV-1">
          <mxGeometry x="125" y="485" width="30" height="30" as="geometry" />
        </mxCell>
        <mxCell id="MD0y3iLFZOxwnhTRuBRV-36" value="Aloitusruutu" style="whiteSpace=wrap;html=1;fontSize=16;" vertex="1" parent="WIyWlLk6GJQsqaUBKTNV-1">
          <mxGeometry x="345" y="570" width="95" height="40" as="geometry" />
        </mxCell>
        <mxCell id="MD0y3iLFZOxwnhTRuBRV-37" value="Vankila" style="whiteSpace=wrap;html=1;fontSize=16;" vertex="1" parent="WIyWlLk6GJQsqaUBKTNV-1">
          <mxGeometry x="450" y="570" width="110" height="40" as="geometry" />
        </mxCell>
        <mxCell id="MD0y3iLFZOxwnhTRuBRV-76" style="edgeStyle=none;curved=1;rounded=0;orthogonalLoop=1;jettySize=auto;html=1;exitX=1;exitY=0.5;exitDx=0;exitDy=0;entryX=0.002;entryY=0.067;entryDx=0;entryDy=0;entryPerimeter=0;fontSize=12;startSize=8;endSize=8;" edge="1" parent="WIyWlLk6GJQsqaUBKTNV-1" source="MD0y3iLFZOxwnhTRuBRV-38" target="MD0y3iLFZOxwnhTRuBRV-69">
          <mxGeometry relative="1" as="geometry" />
        </mxCell>
        <mxCell id="MD0y3iLFZOxwnhTRuBRV-38" value="Sattuma" style="whiteSpace=wrap;html=1;fontSize=16;" vertex="1" parent="WIyWlLk6GJQsqaUBKTNV-1">
          <mxGeometry x="580" y="570" width="100" height="40" as="geometry" />
        </mxCell>
        <mxCell id="MD0y3iLFZOxwnhTRuBRV-39" style="edgeStyle=none;curved=1;rounded=0;orthogonalLoop=1;jettySize=auto;html=1;exitX=1;exitY=0;exitDx=0;exitDy=0;fontSize=12;startSize=8;endSize=8;" edge="1" parent="WIyWlLk6GJQsqaUBKTNV-1" source="MD0y3iLFZOxwnhTRuBRV-37" target="MD0y3iLFZOxwnhTRuBRV-37">
          <mxGeometry relative="1" as="geometry" />
        </mxCell>
        <mxCell id="MD0y3iLFZOxwnhTRuBRV-75" style="edgeStyle=none;curved=1;rounded=0;orthogonalLoop=1;jettySize=auto;html=1;exitX=1;exitY=0.5;exitDx=0;exitDy=0;entryX=-0.004;entryY=-0.044;entryDx=0;entryDy=0;entryPerimeter=0;fontSize=12;startSize=8;endSize=8;" edge="1" parent="WIyWlLk6GJQsqaUBKTNV-1" source="MD0y3iLFZOxwnhTRuBRV-42" target="MD0y3iLFZOxwnhTRuBRV-69">
          <mxGeometry relative="1" as="geometry" />
        </mxCell>
        <mxCell id="MD0y3iLFZOxwnhTRuBRV-42" value="Yhteismaa" style="whiteSpace=wrap;html=1;fontSize=16;" vertex="1" parent="WIyWlLk6GJQsqaUBKTNV-1">
          <mxGeometry x="650" y="490" width="100" height="40" as="geometry" />
        </mxCell>
        <mxCell id="MD0y3iLFZOxwnhTRuBRV-43" value="Asemat ja laitokset" style="whiteSpace=wrap;html=1;fontSize=16;" vertex="1" parent="WIyWlLk6GJQsqaUBKTNV-1">
          <mxGeometry x="650" y="420" width="100" height="50" as="geometry" />
        </mxCell>
        <mxCell id="MD0y3iLFZOxwnhTRuBRV-44" value="Normaalitkadut&lt;br&gt;-rakennatalo()" style="whiteSpace=wrap;html=1;fontSize=16;" vertex="1" parent="WIyWlLk6GJQsqaUBKTNV-1">
          <mxGeometry x="650" y="360" width="100" height="50" as="geometry" />
        </mxCell>
        <mxCell id="MD0y3iLFZOxwnhTRuBRV-46" value="" style="endArrow=block;endSize=16;endFill=0;html=1;rounded=0;fontSize=12;curved=1;exitX=1;exitY=0.5;exitDx=0;exitDy=0;entryX=0;entryY=0.5;entryDx=0;entryDy=0;" edge="1" parent="WIyWlLk6GJQsqaUBKTNV-1" source="MD0y3iLFZOxwnhTRuBRV-4" target="MD0y3iLFZOxwnhTRuBRV-44">
          <mxGeometry width="160" relative="1" as="geometry">
            <mxPoint x="480" y="540" as="sourcePoint" />
            <mxPoint x="640" y="540" as="targetPoint" />
          </mxGeometry>
        </mxCell>
        <mxCell id="MD0y3iLFZOxwnhTRuBRV-47" value="" style="endArrow=block;endSize=16;endFill=0;html=1;rounded=0;fontSize=12;curved=1;exitX=1;exitY=0.75;exitDx=0;exitDy=0;entryX=0;entryY=0.5;entryDx=0;entryDy=0;" edge="1" parent="WIyWlLk6GJQsqaUBKTNV-1" source="MD0y3iLFZOxwnhTRuBRV-4" target="MD0y3iLFZOxwnhTRuBRV-43">
          <mxGeometry width="160" relative="1" as="geometry">
            <mxPoint x="570" y="470" as="sourcePoint" />
            <mxPoint x="660" y="395" as="targetPoint" />
          </mxGeometry>
        </mxCell>
        <mxCell id="MD0y3iLFZOxwnhTRuBRV-48" value="" style="endArrow=block;endSize=16;endFill=0;html=1;rounded=0;fontSize=12;curved=1;exitX=1;exitY=1;exitDx=0;exitDy=0;entryX=0;entryY=0.75;entryDx=0;entryDy=0;" edge="1" parent="WIyWlLk6GJQsqaUBKTNV-1" source="MD0y3iLFZOxwnhTRuBRV-4" target="MD0y3iLFZOxwnhTRuBRV-42">
          <mxGeometry width="160" relative="1" as="geometry">
            <mxPoint x="580" y="480" as="sourcePoint" />
            <mxPoint x="670" y="405" as="targetPoint" />
          </mxGeometry>
        </mxCell>
        <mxCell id="MD0y3iLFZOxwnhTRuBRV-49" value="" style="endArrow=block;endSize=16;endFill=0;html=1;rounded=0;fontSize=12;curved=1;entryX=0.5;entryY=0;entryDx=0;entryDy=0;exitX=0.75;exitY=1;exitDx=0;exitDy=0;" edge="1" parent="WIyWlLk6GJQsqaUBKTNV-1" source="MD0y3iLFZOxwnhTRuBRV-4" target="MD0y3iLFZOxwnhTRuBRV-38">
          <mxGeometry width="160" relative="1" as="geometry">
            <mxPoint x="580" y="490" as="sourcePoint" />
            <mxPoint x="680" y="415" as="targetPoint" />
          </mxGeometry>
        </mxCell>
        <mxCell id="MD0y3iLFZOxwnhTRuBRV-50" value="" style="endArrow=block;endSize=16;endFill=0;html=1;rounded=0;fontSize=12;curved=1;exitX=0.5;exitY=1;exitDx=0;exitDy=0;" edge="1" parent="WIyWlLk6GJQsqaUBKTNV-1" source="MD0y3iLFZOxwnhTRuBRV-4" target="MD0y3iLFZOxwnhTRuBRV-37">
          <mxGeometry width="160" relative="1" as="geometry">
            <mxPoint x="600" y="500" as="sourcePoint" />
            <mxPoint x="690" y="425" as="targetPoint" />
          </mxGeometry>
        </mxCell>
        <mxCell id="MD0y3iLFZOxwnhTRuBRV-51" value="" style="endArrow=block;endSize=16;endFill=0;html=1;rounded=0;fontSize=12;curved=1;exitX=0.25;exitY=1;exitDx=0;exitDy=0;entryX=0.5;entryY=0;entryDx=0;entryDy=0;" edge="1" parent="WIyWlLk6GJQsqaUBKTNV-1" source="MD0y3iLFZOxwnhTRuBRV-4" target="MD0y3iLFZOxwnhTRuBRV-36">
          <mxGeometry width="160" relative="1" as="geometry">
            <mxPoint x="610" y="510" as="sourcePoint" />
            <mxPoint x="700" y="435" as="targetPoint" />
          </mxGeometry>
        </mxCell>
        <mxCell id="MD0y3iLFZOxwnhTRuBRV-68" value="Kortti" style="swimlane;fontStyle=0;childLayout=stackLayout;horizontal=1;startSize=30;horizontalStack=0;resizeParent=1;resizeParentMax=0;resizeLast=0;collapsible=1;marginBottom=0;whiteSpace=wrap;html=1;fontSize=16;" vertex="1" parent="WIyWlLk6GJQsqaUBKTNV-1">
          <mxGeometry x="770" y="560" width="140" height="60" as="geometry" />
        </mxCell>
        <mxCell id="MD0y3iLFZOxwnhTRuBRV-69" value="-Tapahtuma" style="text;strokeColor=none;fillColor=none;align=left;verticalAlign=middle;spacingLeft=4;spacingRight=4;overflow=hidden;points=[[0,0.5],[1,0.5]];portConstraint=eastwest;rotatable=0;whiteSpace=wrap;html=1;fontSize=16;" vertex="1" parent="MD0y3iLFZOxwnhTRuBRV-68">
          <mxGeometry y="30" width="140" height="30" as="geometry" />
        </mxCell>
      </root>
    </mxGraphModel>
  </diagram>
</mxfile>
